<?xml version="1.0" encoding="utf-8"?>
<!-- Generator: Adobe Illustrator 27.2.0, SVG Export Plug-In . SVG Version: 6.00 Build 0)  -->
<svg version="1.1" id="textblock" xmlns:svgjs="http://svgjs.dev/svgjs"
	 xmlns="http://www.w3.org/2000/svg" xmlns:xlink="http://www.w3.org/1999/xlink" x="0px" y="0px" viewBox="0 0 1000 1000"
	 style="enable-background:new 0 0 1000 1000;" xml:space="preserve">
<style type="text/css">
	.st0{fill:#61777F;}
	.st1{display:none;fill:none;}
</style>
<g transform="matrix(0.7,0,0,0.7,149.57575757575756,454.24284860236355)">
	<g id="tight-bounds" transform="matrix(1,0,0,1,0.2400000000000091,-0.0526513339466419)">
		<g>
			<g>
				<g id="textblocktransform">
					<g>
						<g transform="matrix(1,0,0,1,0,0)">
							<g id="text-0">
								<path d="M-3.2,3.3h33.6L-2.1,175.5c-0.7,2.6-2.1,4.8-4.3,6.6c-2.2,1.8-4.9,2.6-8,2.6l0,0h-32.6c-3,0-5.6-0.9-7.9-2.6
									c-2.3-1.8-3.6-4-3.9-6.8l0,0L-82.8,49.3c-0.7-3.9-1.3-7.6-1.8-11.3c-0.5-3.7-1.1-7.4-1.6-11l0,0h-5.3
									c-0.5,3.7-1.1,7.4-1.7,11.1c-0.6,3.8-1.2,7.5-1.7,11.2l0,0l-23.7,125.9c-0.5,2.8-1.9,5.1-4.2,6.8c-2.3,1.8-4.9,2.6-7.9,2.6
									l0,0h-32.9c-3.2,0-5.8-0.9-8-2.6c-2.2-1.8-3.6-3.9-4.1-6.6l0,0L-208.2,3.3h33.6l22.9,132.7c0.5,3.5,1,7.4,1.5,11.6
									c0.4,4.2,0.9,8.5,1.4,12.9l0,0h5.5c0.7-4,1.4-8.2,2.1-12.5c0.7-4.3,1.4-8.3,2.1-12.2l0,0l23.4-122.2
									c0.4-3.2,1.7-5.7,3.9-7.5c2.3-1.8,4.9-2.7,7.9-2.7l0,0h29.7c3.2,0,5.8,0.9,7.9,2.7c2.1,1.9,3.5,4.4,4.2,7.5l0,0l23.4,122.5
									c0.9,4,1.6,8.1,2.3,12.4c0.6,4.2,1.2,8.2,1.7,12.1l0,0h5.8c0.4-4,0.8-8.1,1.3-12.4c0.5-4.2,1.1-8.1,1.6-11.8l0,0L-3.2,3.3z
									 M58,3.3h32.9v181.4H58V3.3z M88.8,75.1h77.8v25.8H88.8V75.1z M163.7,3.3h32.9v181.4h-32.9V3.3z M237,3.3h32.9v181.4H237
									V3.3z M351.6,3.3h32.9v181.4h-32.9V3.3z M295.3,3.3h145.4v26.8H295.3V3.3z M501.9,2.8L501.9,2.8c9.1,0,18.5,0,28,0
									c9.5,0,18.9,0.2,28.2,0.5c9.3,0.4,18,0.9,26.3,1.6l0,0l-1.6,24.4h-71c-4.9,0-8.5,1.2-10.9,3.7c-2.4,2.5-3.6,6.3-3.6,11.6
									l0,0v98.8c0,5.3,1.2,9.1,3.6,11.6c2.3,2.5,6,3.7,10.9,3.7l0,0h71l1.6,24.4c-8.2,0.7-17,1.2-26.3,1.4
									c-9.3,0.3-18.7,0.5-28.2,0.6c-9.6,0.1-18.9,0.1-28,0.1l0,0c-11.2,0-20.2-3.1-26.9-9.4c-6.8-6.2-10.2-14.6-10.4-25.1l0,0
									V37.2c0.2-10.5,3.6-18.9,10.4-25.1C481.8,5.9,490.7,2.8,501.9,2.8z M469.4,101.9V77.7h103.6v24.2H469.4z"/>
								<path class="st0" d="M660.4-0.1L660.4-0.1c8.9,0.2,18.4,0.7,28.3,1.6c9.9,0.9,19.6,2.5,29,5l0,0l-2.1,22.3
									c-7.5-0.2-16.2-0.4-26.1-0.7c-9.9-0.2-19.4-0.4-28.5-0.4l0,0c-5.6,0-10.4,0.2-14.3,0.5c-4,0.4-7.2,1.2-9.6,2.6
									c-2.5,1.4-4.3,3.5-5.4,6.4c-1.1,2.9-1.7,6.9-1.7,12l0,0c0,7.9,1.6,13.5,4.9,16.8c3.2,3.3,8.5,6,15.9,7.9l0,0l35.7,10.5
									c14.4,4.4,24.3,10.7,29.7,19c5.4,8.3,8.1,19.4,8.1,33.3l0,0c0,10.3-1.2,18.8-3.7,25.5c-2.5,6.7-6.2,11.8-11.3,15.5
									s-11.7,6.3-20,7.9c-8.2,1.6-18.1,2.4-29.7,2.4l0,0c-6,0-14.1-0.4-24.5-1.1c-10.4-0.7-22.3-2.5-35.6-5.3l0,0l2.1-23.7
									c10.3,0.4,19,0.6,26,0.9c7,0.3,13.1,0.4,18.1,0.4s9.8,0,14.2,0l0,0c8.1,0,14.4-0.5,18.9-1.6c4.6-1.1,7.8-3.2,9.6-6.6
									c1.8-3.3,2.7-8.1,2.7-14.5l0,0c0-5.4-0.6-9.7-1.9-12.8c-1.3-3-3.5-5.4-6.5-7.2c-3-1.8-6.8-3.2-11.6-4.5l0,0l-37.1-11.3
									c-13.7-4.2-23.3-10.4-28.8-18.7c-5.5-8.2-8.3-19.3-8.3-33.1l0,0c0-10.3,1.2-18.8,3.7-25.4c2.5-6.6,6.2-11.5,11.3-15
									c5.1-3.4,11.6-5.7,19.6-7C639.6,0.6,649.2-0.1,660.4-0.1z M824.7-0.1L824.7-0.1c14,0,25.8,1.5,35.5,4.6
									c9.6,3,17.4,8.2,23.2,15.4c5.9,7.2,10.1,16.8,12.8,28.9s3.9,27.2,3.9,45.2l0,0c0,17.9-1.3,32.9-3.9,45.1
									c-2.6,12.2-6.9,21.9-12.8,29.1c-5.9,7.2-13.6,12.3-23.2,15.4c-9.6,3.1-21.5,4.6-35.5,4.6l0,0c-13.7,0-25.3-1.5-35-4.6
									c-9.6-3-17.4-8.2-23.4-15.4c-6-7.2-10.3-16.9-12.9-29.1c-2.6-12.2-3.9-27.2-3.9-45.1l0,0c0-18,1.3-33.1,3.9-45.2
									c2.6-12.1,6.9-21.7,12.9-28.9c6-7.2,13.8-12.3,23.4-15.4C799.4,1.5,811.1-0.1,824.7-0.1z M824.7,26.7L824.7,26.7
									c-10.3,0-18.5,2.1-24.3,6.2c-5.9,4.1-10,11.1-12.5,20.8c-2.5,9.7-3.7,23.2-3.7,40.4l0,0c0,17.2,1.2,30.6,3.7,40.3
									c2.5,9.7,6.6,16.7,12.5,20.8c5.9,4.1,14,6.2,24.3,6.2l0,0c10.5,0,18.7-2.1,24.5-6.2c5.9-4.1,10.1-11,12.5-20.8
									c2.5-9.7,3.7-23.1,3.7-40.3l0,0c0-17.2-1.2-30.6-3.7-40.4c-2.5-9.7-6.6-16.6-12.5-20.8C843.4,28.8,835.2,26.7,824.7,26.7z
									 M971.1,2.8L971.1,2.8c8.9,0,18,0,27.2,0.1c9.2,0.1,18.3,0.3,27.3,0.5c9,0.3,17.4,0.9,25.1,1.7l0,0l-1.6,24.2h-66.8
									c-5.3,0-9.2,1.2-11.8,3.7c-2.6,2.5-3.9,6.3-3.9,11.6l0,0v140.1h-32.9V38c0-11,3.4-19.7,10.3-25.9
									C950.9,5.9,959.9,2.8,971.1,2.8z M938.3,104.8V80.6h100.9v24.2H938.3z M1119.8,3.3h32.9v181.4h-32.9V3.3z M1063.6,3.3h145.4
									v26.8h-145.4V3.3z"/>
							</g>
						</g>
					</g>
				</g>
			</g>
		</g>
		<rect x="-213.9" y="-0.1" class="st1" width="1428.6" height="188.2"/>
	</g>
</g>
</svg>
